<?xml version="1.0" encoding="UTF-8" standalone="no"?>
<!-- Created with Inkscape (http://www.inkscape.org/) -->

<svg
   xmlns:dc="http://purl.org/dc/elements/1.1/"
   xmlns:cc="http://creativecommons.org/ns#"
   xmlns:rdf="http://www.w3.org/1999/02/22-rdf-syntax-ns#"
   xmlns:svg="http://www.w3.org/2000/svg"
   xmlns="http://www.w3.org/2000/svg"
   xmlns:sodipodi="http://sodipodi.sourceforge.net/DTD/sodipodi-0.dtd"
   xmlns:inkscape="http://www.inkscape.org/namespaces/inkscape"
   id="svg5292"
   version="1.1"
   inkscape:version="0.47 r22583"
   width="1080"
   height="1080"
   sodipodi:docname="ILove80s.svg">
  <metadata
     id="metadata5298">
    <rdf:RDF>
      <cc:Work
         rdf:about="">
        <dc:format>image/svg+xml</dc:format>
        <dc:type
           rdf:resource="http://purl.org/dc/dcmitype/StillImage" />
        <dc:title></dc:title>
      </cc:Work>
    </rdf:RDF>
  </metadata>
  <defs
     id="defs5296">
    <inkscape:perspective
       sodipodi:type="inkscape:persp3d"
       inkscape:vp_x="0 : 0.5 : 1"
       inkscape:vp_y="0 : 1000 : 0"
       inkscape:vp_z="1 : 0.5 : 1"
       inkscape:persp3d-origin="0.5 : 0.33333333 : 1"
       id="perspective5300" />
    <inkscape:perspective
       id="perspective6045"
       inkscape:persp3d-origin="0.5 : 0.33333333 : 1"
       inkscape:vp_z="1 : 0.5 : 1"
       inkscape:vp_y="0 : 1000 : 0"
       inkscape:vp_x="0 : 0.5 : 1"
       sodipodi:type="inkscape:persp3d" />
    <inkscape:perspective
       id="perspective7736"
       inkscape:persp3d-origin="0.5 : 0.33333333 : 1"
       inkscape:vp_z="1 : 0.5 : 1"
       inkscape:vp_y="0 : 1000 : 0"
       inkscape:vp_x="0 : 0.5 : 1"
       sodipodi:type="inkscape:persp3d" />
    <inkscape:perspective
       id="perspective7750"
       inkscape:persp3d-origin="0.5 : 0.33333333 : 1"
       inkscape:vp_z="1 : 0.5 : 1"
       inkscape:vp_y="0 : 1000 : 0"
       inkscape:vp_x="0 : 0.5 : 1"
       sodipodi:type="inkscape:persp3d" />
    <inkscape:perspective
       id="perspective8034"
       inkscape:persp3d-origin="0.5 : 0.33333333 : 1"
       inkscape:vp_z="1 : 0.5 : 1"
       inkscape:vp_y="0 : 1000 : 0"
       inkscape:vp_x="0 : 0.5 : 1"
       sodipodi:type="inkscape:persp3d" />
    <inkscape:perspective
       id="perspective8148"
       inkscape:persp3d-origin="0.5 : 0.33333333 : 1"
       inkscape:vp_z="1 : 0.5 : 1"
       inkscape:vp_y="0 : 1000 : 0"
       inkscape:vp_x="0 : 0.5 : 1"
       sodipodi:type="inkscape:persp3d" />
    <inkscape:perspective
       id="perspective8628"
       inkscape:persp3d-origin="0.5 : 0.33333333 : 1"
       inkscape:vp_z="1 : 0.5 : 1"
       inkscape:vp_y="0 : 1000 : 0"
       inkscape:vp_x="0 : 0.5 : 1"
       sodipodi:type="inkscape:persp3d" />
    <inkscape:perspective
       id="perspective12317"
       inkscape:persp3d-origin="0.5 : 0.33333333 : 1"
       inkscape:vp_z="1 : 0.5 : 1"
       inkscape:vp_y="0 : 1000 : 0"
       inkscape:vp_x="0 : 0.5 : 1"
       sodipodi:type="inkscape:persp3d" />
    <inkscape:perspective
       id="perspective12353"
       inkscape:persp3d-origin="0.5 : 0.33333333 : 1"
       inkscape:vp_z="1 : 0.5 : 1"
       inkscape:vp_y="0 : 1000 : 0"
       inkscape:vp_x="0 : 0.5 : 1"
       sodipodi:type="inkscape:persp3d" />
    <inkscape:perspective
       id="perspective12927"
       inkscape:persp3d-origin="0.5 : 0.33333333 : 1"
       inkscape:vp_z="1 : 0.5 : 1"
       inkscape:vp_y="0 : 1000 : 0"
       inkscape:vp_x="0 : 0.5 : 1"
       sodipodi:type="inkscape:persp3d" />
    <inkscape:perspective
       id="perspective12970"
       inkscape:persp3d-origin="0.5 : 0.33333333 : 1"
       inkscape:vp_z="1 : 0.5 : 1"
       inkscape:vp_y="0 : 1000 : 0"
       inkscape:vp_x="0 : 0.5 : 1"
       sodipodi:type="inkscape:persp3d" />
  </defs>
  <sodipodi:namedview
     pagecolor="#ffffff"
     bordercolor="#666666"
     borderopacity="1"
     objecttolerance="10"
     gridtolerance="10"
     guidetolerance="10"
     inkscape:pageopacity="0"
     inkscape:pageshadow="2"
     inkscape:window-width="1280"
     inkscape:window-height="780"
     id="namedview5294"
     showgrid="false"
     inkscape:zoom="0.24675926"
     inkscape:cx="744.5362"
     inkscape:cy="36.879034"
     inkscape:window-x="-8"
     inkscape:window-y="-8"
     inkscape:window-maximized="1"
     inkscape:current-layer="svg5292" />
  <path
     id="path12976"
     style="fill:#000000"
     d="m 605.94891,351.55939 c -1.8511,-2.99511 -9.87403,-4.67395 -14.06245,-2.94263 -4.06573,1.6806 -4.0537,1.70134 1.65015,2.84169 8.60596,1.72056 13.43756,1.75985 12.4123,0.10094 z m -99.12672,99.45228 c 9.31934,-4.0435 20.10761,-8.28876 23.97396,-9.43393 9.03969,-2.67745 6.90957,-4.82911 -5.93369,-5.9937 -8.39805,-0.7615 -10.03199,-1.42561 -10.4502,-4.24749 -0.29198,-1.9701 -2.394,-3.97424 -5.11431,-4.87617 -3.73983,-1.23995 -5.04214,-0.95207 -6.8447,1.51307 -2.15241,2.94352 -2.35288,2.92826 -6.05216,-0.46065 -2.10431,-1.92778 -5.46866,-4.00291 -7.47631,-4.6114 -2.00766,-0.60849 -7.24612,-3.57985 -11.64103,-6.60302 -5.51902,-3.79641 -8.70624,-5.04374 -10.30376,-4.03242 -1.27215,0.80533 -5.82527,1.47557 -10.11805,1.48939 -6.9388,0.0223 -9.52759,-1.15917 -23.32526,-10.6456 -8.53611,-5.8689 -16.22841,-10.67073 -17.09402,-10.67073 -0.86559,0 -5.14409,-1.58189 -9.50775,-3.51531 -4.36367,-1.93343 -11.67858,-4.06779 -16.25533,-4.74301 -4.57678,-0.67523 -11.4418,-2.73531 -15.25564,-4.57796 -3.81383,-1.84264 -9.3035,-3.82656 -12.19925,-4.40871 -2.89576,-0.58214 -8.95872,-2.4348 -13.47327,-4.11702 -13.31186,-4.96031 -24.94224,-8.18771 -29.50552,-8.18771 -2.34511,0 -6.22734,-1.28653 -8.62717,-2.85896 -3.56565,-2.3363 -7.49822,-2.78427 -21.51134,-2.45039 -10.82574,0.25794 -17.96428,-0.26886 -19.36195,-1.42883 -3.07503,-2.55204 -7.1807,-0.60612 -7.1807,3.40336 0,2.56503 -1.07055,3.33482 -4.63772,3.33482 -5.1277,0 -8.10744,2.52631 -14.52219,12.31239 -5.80358,8.85368 -7.58966,28.04007 -2.92763,31.44902 3.99313,2.91986 11.26238,2.79347 17.24411,-0.29981 5.39097,-2.78777 5.9574,-5.02431 2.51661,-9.93672 -1.27975,-1.82711 -2.82602,-5.98295 -3.43615,-9.23522 -0.97368,-5.19015 -0.65426,-6.05764 2.61215,-7.09436 2.69111,-0.85414 4.34101,-0.33004 5.95913,1.89292 4.97341,6.83245 16.8475,18.43454 19.83818,19.38374 1.7528,0.55633 4.39994,2.35187 5.88252,3.9901 2.22445,2.45798 4.05566,2.7694 10.47683,1.78174 4.66774,-0.71798 9.07798,-0.51094 11.0221,0.51748 1.78249,0.9429 8.09578,1.86247 14.02953,2.04348 5.93376,0.18102 12.36829,1.17451 14.29893,2.20777 1.93067,1.03325 6.04138,1.87866 9.13492,1.87866 3.16704,0 8.06323,1.65488 11.20581,3.7875 8.46234,5.74269 16.31488,9.3457 20.3684,9.3457 5.54566,0 15.24035,3.81228 39.02227,15.34489 19.44212,9.42812 30.28227,12.95504 50.40189,16.3987 8.88135,1.52012 18.53621,-0.60303 34.76776,-7.64561 z m 114.1677,437.84561 c -0.55108,-0.5511 -8.24632,-1.47453 -17.10052,-2.05206 -14.93681,-0.97429 -16.13549,-1.30966 -16.6105,-4.64745 -0.42754,-3.00407 0.65551,-3.90476 6.5666,-5.46103 3.89321,-1.02502 10.77229,-3.38973 15.28683,-5.25493 4.51454,-1.86521 10.99189,-3.73439 14.39411,-4.15372 3.8147,-0.47018 7.11841,-2.09383 8.61867,-4.23577 2.91074,-4.15566 3.19417,-12.81629 0.50737,-15.5031 -1.37428,-1.37427 -1.44415,-2.99557 -0.24405,-5.66369 2.13656,-4.75023 1.48689,-30.16623 -0.92708,-36.26773 -2.53139,-6.39834 -2.24484,-29.50653 0.51118,-41.2225 2.26435,-9.62581 2.23831,-9.81612 -2.48812,-18.19089 -2.62702,-4.65484 -4.7764,-10.30637 -4.7764,-12.55896 0,-2.25261 -1.84685,-5.83067 -4.10412,-7.95127 -2.25728,-2.1206 -4.10413,-4.73086 -4.10413,-5.80059 0,-1.06974 -2.20687,-6.29685 -4.90416,-11.61582 -2.69729,-5.31896 -4.91352,-10.65462 -4.92495,-11.85702 -0.0115,-1.20241 -2.6064,-5.34159 -5.76658,-9.19817 -3.16018,-3.85657 -5.74578,-8.18507 -5.74578,-9.61888 0,-1.43381 -0.69345,-3.03551 -1.54101,-3.55933 -0.84756,-0.52383 -3.85675,-4.99987 -6.68709,-9.94679 -2.83034,-4.94692 -6.19533,-8.99439 -7.47777,-8.99439 -1.28242,0 -4.60578,-3.13966 -7.38521,-6.97702 -2.77945,-3.83736 -6.10842,-7.56778 -7.39773,-8.28983 -1.28932,-0.72205 -2.34421,-2.78884 -2.34421,-4.59288 0,-2.98124 -0.93474,-3.23553 -10.26032,-2.79132 -8.45343,0.40269 -10.51747,1.07366 -11.72052,3.81015 -0.80313,1.82676 -5.10149,5.8318 -9.55194,8.90009 -4.45047,3.06828 -10.07268,7.94912 -12.49384,10.84632 -8.77863,10.50472 -29.60883,19.25334 -41.33924,17.36237 -6.10326,-0.98386 -20.83059,-9.52353 -28.07791,-16.28101 -10.26597,-9.57212 -12.07958,-15.17728 -12.06311,-37.28237 0.0115,-16.07336 0.48609,-19.05057 4.31371,-27.08724 6.85421,-14.3915 16.11181,-21.34147 28.4276,-21.34147 4.00777,0 6.45178,-1.18486 8.92221,-4.32552 1.87136,-2.37903 3.40246,-4.99552 3.40246,-5.81441 0,-2.96402 -5.86139,-7.4675 -10.98903,-8.44323 -8.65615,-1.64715 -32.43803,-21.08428 -35.14058,-28.72068 -1.22395,-3.45845 -3.56,-5.04491 -10.84299,-7.36366 -5.1056,-1.62553 -12.51166,-5.13456 -16.45791,-7.79784 -3.94625,-2.66329 -7.74262,-4.84235 -8.43638,-4.84235 -5.55473,0 -18.88506,-6.02162 -25.53832,-11.53622 -9.09556,-7.53898 -26.26957,-18.0135 -29.53487,-18.0135 -1.18185,0 -4.93755,-2.21623 -8.34604,-4.92495 -3.40849,-2.70872 -7.75784,-4.93584 -9.66523,-4.94915 -1.90739,-0.0133 -5.31484,-1.08971 -7.57211,-2.39198 -2.25727,-1.30229 -5.72767,-3.10529 -7.71199,-4.00667 -1.98432,-0.90136 -4.83957,-3.5187 -6.34499,-5.81627 -1.65181,-2.52097 -4.27244,-4.17739 -6.60907,-4.17739 -2.12956,0 -8.95557,-2.47407 -15.16891,-5.49791 -6.21334,-3.02385 -14.43658,-5.99995 -18.27388,-6.61357 -3.8373,-0.6136 -9.08834,-2.20751 -11.66898,-3.54201 -2.72781,-1.41061 -9.70002,-2.51181 -16.6546,-2.63045 -14.32028,-0.24429 -24.2749,-2.4075 -24.2749,-5.27507 0,-1.15006 -3.29081,-6.51941 -7.31291,-11.93191 -6.06101,-8.15627 -7.88773,-12.42155 -10.67073,-24.9156 -4.23686,-19.021 -4.2079,-22.55074 0.25413,-30.97533 l 3.62108,-6.83681 -3.10757,-12.863 c -3.92573,-16.24947 -4.20419,-30.72517 -0.65924,-34.27012 2.0208,-2.0208 7.86329,-2.80431 26.56021,-3.56186 20.60789,-0.83498 24.54954,-0.59115 28.10516,1.73858 2.2746,1.49037 6.93191,2.72783 10.34958,2.7499 3.41767,0.0221 9.44474,0.78501 13.39349,1.69543 7.08435,1.63334 7.2606,1.5675 13.29145,-4.96509 3.36155,-3.64121 6.63144,-6.62038 7.26643,-6.62038 0.63499,0 3.38713,1.15453 6.11588,2.56562 3.74638,1.93733 5.50981,2.11044 7.20097,0.7069 1.61025,-1.33639 3.15994,-1.36616 5.5147,-0.10593 3.26517,1.74746 5.00266,1.53858 29.30355,-3.52289 13.3251,-2.7754 41.59041,0.45886 65.30947,7.47304 24.0718,7.11848 54.30295,17.42726 70.22007,23.94493 6.52436,2.67157 19.98866,7.20259 29.92065,10.06892 9.93199,2.86634 20.76799,6.61772 24.07998,8.33641 3.71035,1.92539 12.21737,3.72744 22.16229,4.69465 22.68179,2.20596 23.71341,2.15909 18.00488,-0.81811 -2.58621,-1.34879 -6.07738,-2.45236 -7.75817,-2.45236 -4.52493,0 -11.3891,-4.77656 -19.30407,-13.4331 -6.03596,-6.60149 -7.16281,-8.98594 -7.97766,-16.8811 -0.83551,-8.09542 -0.49226,-9.67983 2.87317,-13.26217 5.38485,-5.73191 14.89717,-7.86137 29.4815,-6.59984 6.77181,0.58575 21.0457,0.24874 31.71976,-0.7489 14.39668,-1.34558 19.98561,-1.33403 21.64695,0.0448 1.52409,1.26489 3.20312,1.34298 5.25574,0.24445 15.06125,-8.06053 64.04457,-11.95592 113.75091,-9.04601 7.67472,0.44929 20.59185,1.12286 28.70475,1.49682 16.526,0.76175 25.10156,3.54749 33.4294,10.85943 11.39616,10.00596 14.07394,14.43591 15.12776,25.02652 0.8995,9.03946 0.46349,11.11336 -4.59651,21.86371 -3.07463,6.53232 -6.27667,12.30118 -7.11563,12.81968 -3.0554,1.88834 -1.41452,3.82198 2.98749,3.52051 3.46372,-0.23721 4.62829,0.49677 5.00933,3.15718 0.42002,2.93266 -0.54545,3.60599 -6.27191,4.37407 -3.72261,0.4993 -9.48584,2.81228 -12.80718,5.13995 -3.32133,2.32766 -11.03156,7.80809 -17.13384,12.17874 -10.3216,7.39267 -18.88099,11.87515 -31.99829,16.7573 -3.81903,1.42141 -5.33537,3.02069 -5.33537,5.62724 0,3.73412 -5.60778,7.45176 -11.24047,7.45176 -3.44735,0 -6.81769,3.06905 -6.81769,6.20823 0,1.24755 2.54269,5.37128 5.6504,9.16384 3.10772,3.79258 6.39096,8.84341 7.2961,11.22408 0.90513,2.38068 3.7093,5.31758 6.2315,6.52642 6.48422,3.10781 6.51402,6.85529 0.11836,14.88538 -10.56659,13.26688 -16.86266,24.73221 -40.34766,73.47422 -5.43802,11.28635 -14.7531,27.5387 -20.70016,36.11632 -20.65748,29.79492 -22.56804,37.32214 -16.87563,66.48687 1.58608,8.12617 3.32385,23.2704 3.86174,33.65385 0.53787,10.38344 1.88524,20.35647 2.99412,22.16229 3.36742,5.48375 9.08832,23.5111 9.08832,28.63853 0,2.65186 0.73874,5.27811 1.64165,5.83614 2.34889,1.45169 2.02529,11.02024 -0.65041,19.23202 -3.40903,10.46242 -4.10409,15.85122 -5.98922,46.43402 -0.94613,15.34943 -2.1434,30.86304 -2.66059,34.47467 -1.37884,9.62871 -1.3428,16.04889 0.10786,19.22066 0.98773,2.15953 0.3048,3.04955 -2.97082,3.87169 -3.04099,0.76324 -4.25338,2.14836 -4.25338,4.85942 0,2.08553 -0.43095,4.91494 -0.95768,6.28754 -0.54796,1.42797 0.50552,3.74844 2.46248,5.42406 6.71611,5.75051 2.77679,14.93385 -7.90596,18.43041 -5.82419,1.9063 -36.63448,2.5682 -38.37821,0.82448 z" />
</svg>
